<svg xmlns="http://www.w3.org/2000/svg" width="31.969" height="30.567" viewBox="0 0 31.969 30.567">
    <defs>
        <style>
            .cls-1{fill:#434856;opacity:.3}
        </style>
    </defs>
    <path id="Path_321" d="M6.333 2.383h7.389V0H6.333a6.333 6.333 0 0 0 0 12.667h7.389v-2.382H6.333a3.951 3.951 0 0 1 0-7.9zm18.948 10.284h-7.39v-2.382h7.39a3.951 3.951 0 0 0 0-7.9h-7.39V0h7.39a6.333 6.333 0 0 1 0 12.666zM6.812 6.334A1.494 1.494 0 0 1 8.3 4.845h15.013a1.489 1.489 0 0 1 0 2.978H8.3a1.493 1.493 0 0 1-1.488-1.489z" class="cls-1" data-name="Path 321" transform="rotate(138 14.178 10.842)"/>
</svg>
