<svg xmlns="http://www.w3.org/2000/svg" width="18.194" height="20.216" viewBox="0 0 18.194 20.216">
    <defs>
        <style>
            .cls-1{fill:#48a0bc}
        </style>
    </defs>
    <g id="noun_File_2162174" transform="translate(-3.924 -1)">
        <g id="Group_348" data-name="Group 348" transform="translate(3.924 1)">
            <path id="Path_341" d="M18.52 1H4.369a.674.674 0 0 0-.674.674v7.412H1.674A.674.674 0 0 0 1 9.76v10.782a.674.674 0 0 0 .674.674H18.52a.674.674 0 0 0 .674-.674V1.674A.674.674 0 0 0 18.52 1zM2.348 10.434h5.785l2.5 2.5a.671.671 0 0 0 .476.2h3.369v6.739H2.348zm15.5 9.434h-2.023v-7.412a.674.674 0 0 0-.674-.674h-3.764l-1.348-1.348h5.786a.674.674 0 1 0 0-1.348H5.043V2.348h12.8z" class="cls-1" data-name="Path 341" transform="translate(-1 -1)"/>
            <path id="Path_342" d="M9.674 6.348h5.391a.674.674 0 0 0 0-1.348H9.674a.674.674 0 1 0 0 1.348z" class="cls-1" data-name="Path 342" transform="translate(-3.609 -2.305)"/>
            <path id="Path_343" d="M9.674 10.348h8.76a.674.674 0 1 0 0-1.348h-8.76a.674.674 0 1 0 0 1.348z" class="cls-1" data-name="Path 343" transform="translate(-3.609 -3.609)"/>
        </g>
    </g>
</svg>
