<svg xmlns="http://www.w3.org/2000/svg" id="Group_164" width="28.426" height="23.949" data-name="Group 164" viewBox="0 0 28.426 23.949">
    <defs>
        <style>
            .cls-1{fill:#434856}
        </style>
    </defs>
    <path id="Path_284" d="M25.515 2.659L17.145 19.4 3.194 10.332l22.321-7.673M27.549 0a.85.85 0 0 0-.284.048L.592 9.217A.876.876 0 0 0 .4 10.781l16.345 10.625a1.218 1.218 0 0 0 .666.2 1.242 1.242 0 0 0 .322-.042 1.227 1.227 0 0 0 .772-.632l9.829-19.66A.878.878 0 0 0 27.549 0z" class="cls-1" data-name="Path 284"/>
    <path id="Path_285" d="M11.7 17.8c-1.588-.785-1.02-1.649-1.02-1.649s6.538-5.643 8.768-7.764a.218.218 0 0 0 .031-.28.328.328 0 0 0-.345-.081l-14.3 5.495v10.2a.956.956 0 0 0 .589.8.946.946 0 0 0 .98-.137l6.66-5.784a13.114 13.114 0 0 0-1.363-.8z" class="cls-1" data-name="Path 285" transform="translate(-.39 -.646)"/>
</svg>
