<svg xmlns="http://www.w3.org/2000/svg" width="19.009" height="12.467" viewBox="0 0 19.009 12.467">
    <defs>
        <style>
            .cls-1{fill:#57a0e1}
        </style>
    </defs>
    <g id="noun_users_791122" transform="translate(-483.496 31.233)">
        <g id="Group_225" data-name="Group 225" transform="translate(476.037 -53.333)">
            <circle id="Ellipse_31" cx="2.547" cy="2.547" r="2.547" class="cls-1" data-name="Ellipse 31" transform="translate(14.416 22.1)"/>
            <circle id="Ellipse_32" cx="1.899" cy="1.899" r="1.899" class="cls-1" data-name="Ellipse 32" transform="translate(20.784 23.329)"/>
            <path id="Path_290" d="M72.231 51.42c-.38-2.391-1.631-3.82-3.776-3.82a3.394 3.394 0 0 0-2.055.6 2.015 2.015 0 0 0 .223.2 7.635 7.635 0 0 1 1.832 4.111c0 .067.022.134.022.179 2.079.026 3.911-.331 3.754-1.27z" class="cls-1" data-name="Path 290" transform="translate(-45.773 -19.803)"/>
            <circle id="Ellipse_33" cx="1.899" cy="1.899" r="1.899" class="cls-1" data-name="Ellipse 33" transform="translate(9.345 23.329)"/>
            <path id="Path_291" d="M13.1 48.4l.2-.2a3.441 3.441 0 0 0-2.055-.6c-2.122 0-3.374 1.408-3.776 3.82-.156.938 1.7 1.3 3.776 1.3a.436.436 0 0 1 .022-.179A7.466 7.466 0 0 1 13.1 48.4z" class="cls-1" data-name="Path 291" transform="translate(0 -19.803)"/>
            <path id="Path_292" d="M32.409 54.214c-2.793 0-5.25-.492-5.049-1.72.536-3.217 2.212-5.094 5.049-5.094s4.513 1.9 5.049 5.094c.201 1.229-2.258 1.72-5.049 1.72z" class="cls-1" data-name="Path 292" transform="translate(-15.446 -19.648)"/>
        </g>
    </g>
</svg>
