<svg xmlns="http://www.w3.org/2000/svg" width="337.036" height="66.614" viewBox="0 0 337.036 66.614"><defs><style>.a{fill:#531919;}.b{fill:#f7ca5a;}</style></defs><g transform="translate(-0.1 -0.995)"><g transform="translate(0.1 0.995)"><path class="a" d="M25.833,29.562h3.019L36.964,20.6l-7.169-8.867A17.865,17.865,0,0,0,18.1,7.3H3.1L16.212,24.468s3.962,5.094,9.622,5.094Zm0,0" transform="translate(-0.27 -1.353)"/><path class="b" d="M63.676,49.129C58.205,41.3,50.47,41.3,50.47,41.3h-3.3L40,49.224c2.17,2.83,6.32,8.3,9.622,13.206C55,70.542,62.167,69.882,62.167,69.882h1.792l7.735-10c-2.924-3.773-5.943-7.735-8.018-10.753Zm0,0" transform="translate(-2.363 -3.281)"/><path class="a" d="M95.662,9.112C88.871.528,80.381,1,80.381,1h.472L73.118,11.093c5.754,7.169,11.7,14.715,13.961,17.922,4.245,5.848.094,10.376.094,10.376L73.118,57.6l-7.735,10H81.042C90.1,67.5,96.606,57.22,96.606,57.22L107.359,42.5c6.6-8.4,0-16.79,0-16.79a189.4,189.4,0,0,0-11.7-16.6ZM96.606,29.2a3.3,3.3,0,1,1,3.3-3.3,3.281,3.281,0,0,1-3.3,3.3Zm0,0" transform="translate(-3.786 -0.995)"/><path class="b" d="M66.224,15.244l3.207-4.15L77.166,1H61.414C54.245,1,49.623,5.716,47.642,8.358L.1,60.8H19.154c7.452-.472,13.678-8.4,13.678-8.4l4.905-5.471,7.075-7.924Zm0,0" transform="translate(-0.1 -0.995)"/></g><g transform="translate(123.67 17.13)"><path class="a" d="M133.364,29.548h0l-2.264-.472V18.983h0a13.538,13.538,0,0,1,2.83-.283,7.974,7.974,0,0,1,2.736.283A24.8,24.8,0,0,1,141,23.228a2.067,2.067,0,0,1,.283.755,3.082,3.082,0,0,1,0,1.321,8.837,8.837,0,0,1-.377,1.509,3.951,3.951,0,0,1-1.038,1.509,4.869,4.869,0,0,1-1.792,1.132,6,6,0,0,1-2.358.283,6.666,6.666,0,0,1-2.358-.189Zm4.811-8.018a7.868,7.868,0,0,0-1.132-.755,3.013,3.013,0,0,0-1.321-.283H134.59c-.283,0-.66.094-1.226.094V28.6a5.036,5.036,0,0,0,2.075-.189,3.773,3.773,0,0,0,1.7-.943,6.028,6.028,0,0,0,1.226-1.415,7.227,7.227,0,0,0,.66-1.6,3.036,3.036,0,0,0-.094-1.6,2.336,2.336,0,0,0-.755-1.321Zm0,0" transform="translate(-131.1 -18.134)"/><path class="a" d="M145.579,26.605l3.585-2.453a2.925,2.925,0,0,0-1.981-.566,1.684,1.684,0,0,0-1.226,1.038,3.9,3.9,0,0,0-.377,1.981Zm.377,1.509a1.793,1.793,0,0,0,1.038.66,1.624,1.624,0,0,0,1.132-.189,10.288,10.288,0,0,0,1.038-.566c.283-.189.566-.472.943-.755l.283.283c.189.189.377.472.566.66l.283.283a8.808,8.808,0,0,1-2.358,1.321,3.215,3.215,0,0,1-1.887,0,6,6,0,0,1-2.547-1.887,3.463,3.463,0,0,1-.849-1.887,3.854,3.854,0,0,1,.283-2.075,4.065,4.065,0,0,1,1.226-1.6,2.646,2.646,0,0,1,1.792-.66,3.85,3.85,0,0,1,1.887.849,13.232,13.232,0,0,1,2.075,1.6s-.472.377-1.226.943c-.849.66-1.7,1.226-2.547,1.887Zm0,0" transform="translate(-131.807 -18.304)"/><path class="a" d="M154.587,22.572l1.509,2.075,1.7-2.547,1.981.472-2.453,3.679,2.924,3.962-1.981-.472-1.7-2.264-1.792,2.736-1.981-.472,2.641-3.962L152.7,22.1Zm0,0" transform="translate(-132.325 -18.327)"/><path class="a" d="M161.372,23.13,160.9,22h1.321V20.3l1.981.472v1.321h1.981l.472,1.132H164.2v3.4a2.611,2.611,0,0,0,.094.849c0,.283.094.472.094.66a2.061,2.061,0,0,0,.283.472,2.062,2.062,0,0,0,.472.283,1.841,1.841,0,0,0,.66-.094,8.726,8.726,0,0,0,.943-.472l.472.472c-.66.566-1.132.943-1.509,1.226a1.346,1.346,0,0,1-1.321-.094,5.391,5.391,0,0,1-1.509-1.038,2.425,2.425,0,0,1-.66-1.132V23.224h-.849Zm0,0" transform="translate(-132.79 -18.225)"/><path class="a" d="M170.579,26.605l3.584-2.453a2.925,2.925,0,0,0-1.981-.566,1.684,1.684,0,0,0-1.226,1.038,3.9,3.9,0,0,0-.377,1.981Zm.377,1.509a1.793,1.793,0,0,0,1.038.66,1.624,1.624,0,0,0,1.132-.189,10.291,10.291,0,0,0,1.038-.566c.283-.189.566-.472.943-.755l.283.283c.189.189.377.472.566.66l.283.283a8.808,8.808,0,0,1-2.358,1.321,3.215,3.215,0,0,1-1.887,0,6,6,0,0,1-2.547-1.887,3.464,3.464,0,0,1-.849-1.887,3.854,3.854,0,0,1,.283-2.075,4.066,4.066,0,0,1,1.226-1.6,2.646,2.646,0,0,1,1.792-.66,3.85,3.85,0,0,1,1.887.849,13.233,13.233,0,0,1,2.075,1.6s-.472.377-1.226.943c-.849.66-1.7,1.226-2.547,1.887Zm0,0" transform="translate(-133.225 -18.304)"/><path class="a" d="M180.381,22.566v1.226C181.136,22.566,181.8,22,182.362,22a3.156,3.156,0,0,1,1.321.377,12.391,12.391,0,0,1,1.6.849l-1.132,1.6a4.711,4.711,0,0,0-1.7-.849,1.47,1.47,0,0,0-1.132.283c-.283.283-.566.66-.943,1.132v4.811l-1.981-.472V22.094Zm0,0" transform="translate(-133.783 -18.321)"/><path class="a" d="M201.644,21.119a17.628,17.628,0,0,0-2.358-1.132,2.017,2.017,0,0,0-1.792.094,3.33,3.33,0,0,0-1.6,1.415,8.546,8.546,0,0,0-1.038,2.075,3.378,3.378,0,0,0,0,2.358,3.091,3.091,0,0,0,1.415,1.887,2.485,2.485,0,0,0,2.453.283l1.132-.566c.283-.189.66-.472,1.038-.755l1.887,1.415a7.176,7.176,0,0,1-1.792,1.132,5.141,5.141,0,0,1-2.075.472,3.23,3.23,0,0,1-2.075-.472,16.817,16.817,0,0,1-3.019-2.264,4.588,4.588,0,0,1-1.038-1.321,2.662,2.662,0,0,1-.377-1.415,8.626,8.626,0,0,1,.094-1.509,8.3,8.3,0,0,1,.472-1.415c.283-.472.566-.849.849-1.321a5.407,5.407,0,0,1,1.038-1.038,7.8,7.8,0,0,1,1.226-.66A3.013,3.013,0,0,1,197.4,18.1a2.611,2.611,0,0,1,1.226.283c1.6.755,2.83,1.321,3.773,1.792Zm0,0" transform="translate(-134.577 -18.1)"/><path class="a" d="M205.138,24.164l-.849-1.415c.755-.189,1.6-.377,2.453-.566a14.121,14.121,0,0,1,1.7-.283c.189,0,.66.377,1.415,1.038a15.531,15.531,0,0,1,1.415,1.6,3.61,3.61,0,0,1,.094,1.321V30.2l-1.981-.472V28.88a3.815,3.815,0,0,1-2.075,1.321q-.707,0-1.981-1.415c-.755-.943-1.226-1.6-1.226-2.075a1.185,1.185,0,0,1,.66-.943,8.16,8.16,0,0,1,1.6-.66c.66-.189,1.226-.283,1.7-.377a7.4,7.4,0,0,1,1.321-.189V24.07q0-.707-.849-.849a14.182,14.182,0,0,0-3.207.66h0l-.189.283Zm.849,4.056a.57.57,0,0,0,.566.283,3.482,3.482,0,0,0,1.226-.189,6.618,6.618,0,0,0,1.792-.943V25.956c-2.924.755-4.056,1.509-3.585,2.264Zm0,0" transform="translate(-135.24 -18.316)"/><path class="a" d="M218.605,27.754a5.083,5.083,0,0,0,.66-1.226,3.256,3.256,0,0,0,.283-1.226,3.538,3.538,0,0,0-.094-1.038,1.531,1.531,0,0,0-.472-.849,1.165,1.165,0,0,0-.755-.377,2.039,2.039,0,0,0-1.038.094,3.17,3.17,0,0,0-1.321.755v4.528a6.5,6.5,0,0,0,.755.283,2.211,2.211,0,0,0,1.038-.189,2.961,2.961,0,0,0,.943-.755Zm-1.132,2.453a6.505,6.505,0,0,1-.943-.377c-.377-.189-.66-.377-.849-.472v4.528l-1.981-.472V22.566c.66-.189,1.226-.283,1.6-.377s.849-.094,1.321-.189a3.438,3.438,0,0,1,1.415.189,5.172,5.172,0,0,1,1.415.755,4.244,4.244,0,0,1,1.415,1.509,2.8,2.8,0,0,1,.377,1.7,3.843,3.843,0,0,1-.472,1.7,5.287,5.287,0,0,1-.943,1.415,3.589,3.589,0,0,1-1.226.849,2.227,2.227,0,0,1-1.132.094Zm0,0" transform="translate(-135.785 -18.321)"/><path class="a" d="M224.926,20.964a2.866,2.866,0,0,1-1.226-1.132c0-.189.189-.377.472-.66a2.367,2.367,0,0,1,.755-.472,2.867,2.867,0,0,1,1.226,1.132,2.093,2.093,0,0,1-1.226,1.132Zm.943,1.415v7.641l-1.981-.472V21.907Zm0,0" transform="translate(-136.352 -18.134)"/><path class="a" d="M227.972,23.13,227.5,22h1.321V20.3l1.981.472v1.321h1.981l.472,1.132H230.8v3.4a2.611,2.611,0,0,0,.094.849c0,.283.094.472.094.66a2.062,2.062,0,0,0,.283.472,2.062,2.062,0,0,0,.472.283,1.842,1.842,0,0,0,.66-.094,8.726,8.726,0,0,0,.943-.472l.472.472c-.66.566-1.132.943-1.509,1.226a1.346,1.346,0,0,1-1.321-.094,5.39,5.39,0,0,1-1.509-1.038,2.425,2.425,0,0,1-.66-1.132V23.224h-.849Zm0,0" transform="translate(-136.567 -18.225)"/><path class="a" d="M236.238,24.164l-.849-1.415c.755-.189,1.6-.377,2.453-.566a14.121,14.121,0,0,1,1.7-.283c.189,0,.66.377,1.415,1.038a15.542,15.542,0,0,1,1.415,1.6,3.612,3.612,0,0,1,.094,1.321V30.2l-1.981-.472V28.88a3.815,3.815,0,0,1-2.075,1.321q-.708,0-1.981-1.415c-.755-.943-1.226-1.6-1.226-2.075a1.185,1.185,0,0,1,.66-.943,8.16,8.16,0,0,1,1.6-.66c.66-.189,1.226-.283,1.7-.377a7.4,7.4,0,0,1,1.321-.189V24.07q0-.707-.849-.849a14.182,14.182,0,0,0-3.207.66h0l-.189.283Zm.755,4.056a.57.57,0,0,0,.566.283,3.482,3.482,0,0,0,1.226-.189,6.619,6.619,0,0,0,1.792-.943V25.956c-2.83.755-4.056,1.509-3.585,2.264Zm0,0" transform="translate(-137.004 -18.316)"/><path class="a" d="M246.981,18.672V29.991L245,29.519V18.2Zm0,0" transform="translate(-137.56 -18.106)"/></g><g transform="translate(123.67 38.825)"><path class="a" d="M138.552,48.314h-5.188v4.716l-2.264-.472V41.9h6.792l1.321,1.415h-5.848V46.9h3.962Zm0,0" transform="translate(-131.1 -41.145)"/><path class="a" d="M142.026,43.964a2.867,2.867,0,0,1-1.226-1.132c0-.189.189-.377.472-.66a2.367,2.367,0,0,1,.755-.472,2.867,2.867,0,0,1,1.226,1.132,2.9,2.9,0,0,1-1.226,1.132Zm.943,1.415v7.641l-1.981-.472V44.907Zm0,0" transform="translate(-131.65 -41.134)"/><path class="a" d="M147.57,45.565v.66A3.519,3.519,0,0,1,150.022,45c.377,0,.943.472,1.792,1.226.849.849,1.321,1.415,1.321,1.7s.094,2.075.094,5.282l-1.981-.472a35.7,35.7,0,0,0-.094-5.754c-.189-.377-.472-.472-.943-.283a5.172,5.172,0,0,0-1.415.755,8.741,8.741,0,0,0-1.321,1.321V53.3l-2.075-.472V45.188Zm0,0" transform="translate(-131.911 -41.32)"/><path class="a" d="M156.238,47.164l-.849-1.415c.755-.189,1.6-.377,2.453-.566a14.121,14.121,0,0,1,1.7-.283c.189,0,.66.377,1.415,1.038a15.533,15.533,0,0,1,1.415,1.6,3.61,3.61,0,0,1,.094,1.321V53.2l-1.981-.472V51.88a3.815,3.815,0,0,1-2.075,1.321q-.707,0-1.981-1.415c-.755-.943-1.226-1.6-1.226-2.075a1.185,1.185,0,0,1,.66-.943,8.16,8.16,0,0,1,1.6-.66c.66-.189,1.226-.283,1.7-.377a7.4,7.4,0,0,1,1.321-.189V47.07q0-.707-.849-.849a14.182,14.182,0,0,0-3.207.66h0l-.189.283Zm.849,3.962a.57.57,0,0,0,.566.283,3.482,3.482,0,0,0,1.226-.189,6.619,6.619,0,0,0,1.792-.943V48.862c-2.924.755-4.056,1.509-3.584,2.264Zm0,0" transform="translate(-132.467 -41.316)"/><path class="a" d="M167.07,45.565v.66A3.519,3.519,0,0,1,169.522,45c.377,0,.943.472,1.792,1.226.849.849,1.321,1.415,1.321,1.7s.094,2.075.094,5.282l-1.981-.472a35.7,35.7,0,0,0-.094-5.754c-.189-.377-.472-.472-.943-.283a5.172,5.172,0,0,0-1.415.755,8.742,8.742,0,0,0-1.321,1.321V53.3l-2.075-.472V45.188Zm0,0" transform="translate(-133.017 -41.32)"/><path class="a" d="M181.784,46.229l-.566.849c-.189-.094-.377-.094-.566-.189s-.377-.094-.472-.189c-.094,0-.283-.094-.377-.094s-.283-.094-.377-.094h-.283a2.2,2.2,0,0,0-1.792,1.321,4.206,4.206,0,0,0-.566,2.547q.142,1.273,1.132,1.415a4.266,4.266,0,0,0,3.019-1.321l.283.377c.189.189.377.472.66.755l.283.377a7.868,7.868,0,0,1-1.132.755,4.406,4.406,0,0,1-.943.472,2.453,2.453,0,0,1-1.887,0,6,6,0,0,1-2.547-1.887,2.8,2.8,0,0,1-.755-1.887,3.894,3.894,0,0,1,.377-2.075,4.314,4.314,0,0,1,1.321-1.6,2.961,2.961,0,0,1,1.981-.66c.283-.189,1.321.283,3.207,1.132Zm0,0" transform="translate(-133.583 -41.324)"/><path class="a" d="M185.426,43.964a2.866,2.866,0,0,1-1.226-1.132c0-.189.189-.377.472-.66a2.366,2.366,0,0,1,.755-.472,2.867,2.867,0,0,1,1.226,1.132,3.621,3.621,0,0,1-1.226,1.132Zm.943,1.415v7.641l-1.981-.472V44.907Zm0,0" transform="translate(-134.112 -41.134)"/><path class="a" d="M189.538,47.164l-.849-1.415c.755-.189,1.6-.377,2.453-.566a14.119,14.119,0,0,1,1.7-.283c.189,0,.66.377,1.415,1.038a15.531,15.531,0,0,1,1.415,1.6,3.608,3.608,0,0,1,.094,1.321V53.2l-1.981-.472V51.88a3.815,3.815,0,0,1-2.075,1.321q-.707,0-1.981-1.415c-.755-.943-1.226-1.6-1.226-2.075a1.185,1.185,0,0,1,.66-.943,8.16,8.16,0,0,1,1.6-.66c.66-.189,1.226-.283,1.7-.377a7.4,7.4,0,0,1,1.321-.189V47.07q0-.707-.849-.849a14.181,14.181,0,0,0-3.207.66h0l-.189.283Zm.755,3.962a.57.57,0,0,0,.566.283,3.482,3.482,0,0,0,1.226-.189,6.619,6.619,0,0,0,1.792-.943V48.862c-2.83.755-3.962,1.509-3.585,2.264Zm0,0" transform="translate(-134.355 -41.316)"/><path class="a" d="M200.281,41.672V52.991l-1.981-.472V41.2Zm0,0" transform="translate(-134.911 -41.106)"/><path class="a" d="M217.344,44.119a17.627,17.627,0,0,0-2.358-1.132,2.017,2.017,0,0,0-1.792.094,3.33,3.33,0,0,0-1.6,1.415,8.549,8.549,0,0,0-1.038,2.075,3.379,3.379,0,0,0,0,2.358,3.091,3.091,0,0,0,1.415,1.887,2.485,2.485,0,0,0,2.453.283l1.132-.566c.283-.189.66-.472,1.038-.755l1.887,1.415a7.176,7.176,0,0,1-1.792,1.132,5.141,5.141,0,0,1-2.075.472,3.23,3.23,0,0,1-2.075-.472,16.814,16.814,0,0,1-3.018-2.264,4.587,4.587,0,0,1-1.038-1.321,2.662,2.662,0,0,1-.377-1.415,8.632,8.632,0,0,1,.094-1.509,8.3,8.3,0,0,1,.472-1.415c.283-.472.566-.849.849-1.321a5.4,5.4,0,0,1,1.038-1.038,7.794,7.794,0,0,1,1.226-.66A3.013,3.013,0,0,1,213.1,41.1a2.611,2.611,0,0,1,1.226.283c1.6.755,2.83,1.321,3.773,1.792Zm0,0" transform="translate(-135.467 -41.1)"/><path class="a" d="M225.277,46.7a1.729,1.729,0,0,0-2.17.189,3.625,3.625,0,0,0-1.226,2.075c-.189,1.038-.094,1.792.566,2.264.094.094.189.094.283.189a2.169,2.169,0,0,0,1.321.189,2.1,2.1,0,0,0,1.226-.849,5.172,5.172,0,0,0,.755-1.415,2.8,2.8,0,0,0,.189-1.509,3.775,3.775,0,0,0-.943-1.132Zm1.6.094a2.957,2.957,0,0,1,.755,1.038,2.611,2.611,0,0,1,.283,1.226,5.379,5.379,0,0,1-.094,1.226,4.083,4.083,0,0,1-.472,1.132,3.693,3.693,0,0,1-.755.943,3.9,3.9,0,0,1-1.038.66,2.589,2.589,0,0,1-1.226.189,3.5,3.5,0,0,1-1.321-.377,10.109,10.109,0,0,1-1.792-1.226,4.588,4.588,0,0,1-1.038-1.321,3.679,3.679,0,0,1,0-2.83,3.328,3.328,0,0,1,.755-1.226,2.949,2.949,0,0,1,1.038-.849A1.9,1.9,0,0,1,223.2,45a2.611,2.611,0,0,1,1.226.283,13.917,13.917,0,0,1,2.453,1.509Zm0,0" transform="translate(-136.136 -41.321)"/><path class="a" d="M232.27,45.565v.66A3.519,3.519,0,0,1,234.722,45c.377,0,.943.472,1.792,1.226.849.849,1.321,1.415,1.321,1.7s.094,2.075.094,5.282l-1.981-.472a35.7,35.7,0,0,0-.094-5.754c-.189-.377-.472-.472-.943-.283a5.173,5.173,0,0,0-1.415.755,8.741,8.741,0,0,0-1.321,1.321V53.3l-2.075-.472V45.188Zm0,0" transform="translate(-136.715 -41.32)"/><path class="a" d="M245.92,45.655l-.189.849a14.1,14.1,0,0,0-2.075-.283,1.749,1.749,0,0,0-1.509,1.981c0,.094.283.094.755,0s.943-.283,1.509-.377a6.237,6.237,0,0,1,1.038-.094,2.94,2.94,0,0,1,1.509,1.509,2.386,2.386,0,0,1,.094,1.792,3.021,3.021,0,0,1-1.226,1.509,3.824,3.824,0,0,1-4.15.094,10.607,10.607,0,0,1-2.075-1.792l.283-.566a6.375,6.375,0,0,0,2.264,1.132,3.625,3.625,0,0,0,2.264-.189,2.8,2.8,0,0,0,1.415-1.792s0-.094-.189-.094c-.094,0-.377.094-.849.189a7.791,7.791,0,0,1-2.83.377l-.189-.094a7.093,7.093,0,0,1-1.415-1.509,1.3,1.3,0,0,1-.283-1.132,5.318,5.318,0,0,1,.377-1.132c.189-.377.566-.566,1.038-.849A3.911,3.911,0,0,1,243,44.9a1.842,1.842,0,0,1,.66.094,8.084,8.084,0,0,0,1.226.283,5.035,5.035,0,0,1,1.038.377Zm0,0" transform="translate(-137.253 -41.316)"/><path class="a" d="M254.46,45.1l1.981.472v7.641l-1.981-.472v-.755c-.849.849-1.6,1.321-2.358,1.226-.377,0-.943-.377-1.792-1.226a5.527,5.527,0,0,1-1.415-1.6c0-.283-.094-2.075-.094-5.282l1.981.472a38.055,38.055,0,0,0,.094,5.848.854.854,0,0,0,.943.283,2.5,2.5,0,0,0,1.415-.943,3.6,3.6,0,0,0,1.132-1.6V45.1Zm0,0" transform="translate(-137.775 -41.327)"/><path class="a" d="M261.081,41.672V52.991l-1.981-.472V41.2Zm0,0" transform="translate(-138.359 -41.106)"/><path class="a" d="M262.772,46.13,262.3,45h1.321V43.3l1.981.472v1.321h1.981l.472,1.132H265.6v3.4a2.611,2.611,0,0,0,.094.849c0,.283.094.472.094.66a1.134,1.134,0,0,0,.755.755,1.842,1.842,0,0,0,.66-.094,8.73,8.73,0,0,0,.943-.472l.472.472c-.66.566-1.132.943-1.509,1.226a1.346,1.346,0,0,1-1.32-.094,5.39,5.39,0,0,1-1.509-1.038,2.425,2.425,0,0,1-.66-1.132V46.224h-.849Zm0,0" transform="translate(-138.541 -41.225)"/><path class="a" d="M270.938,47.164l-.849-1.415c.755-.189,1.6-.377,2.453-.566a14.123,14.123,0,0,1,1.7-.283c.189,0,.66.377,1.415,1.038a15.539,15.539,0,0,1,1.415,1.6,3.61,3.61,0,0,1,.094,1.321V53.2l-1.981-.472V51.88a3.815,3.815,0,0,1-2.075,1.321q-.707,0-1.981-1.415c-.755-.943-1.226-1.6-1.226-2.075a1.185,1.185,0,0,1,.66-.943,8.16,8.16,0,0,1,1.6-.66c.66-.189,1.226-.283,1.7-.377a7.4,7.4,0,0,1,1.321-.189V47.07q0-.707-.849-.849a14.181,14.181,0,0,0-3.207.66h0l-.189.283Zm.849,3.962a.57.57,0,0,0,.566.283,3.482,3.482,0,0,0,1.226-.189,6.618,6.618,0,0,0,1.792-.943V48.862c-2.924.755-4.056,1.509-3.585,2.264Zm0,0" transform="translate(-138.972 -41.316)"/><path class="a" d="M281.77,45.565v.66A3.519,3.519,0,0,1,284.222,45c.377,0,.943.472,1.792,1.226.849.849,1.321,1.415,1.321,1.7s.094,2.075.094,5.282l-1.981-.472a35.7,35.7,0,0,0-.094-5.754c-.189-.377-.472-.472-.943-.283a5.172,5.172,0,0,0-1.415.755,8.737,8.737,0,0,0-1.321,1.321V53.3l-2.075-.472V45.188Zm0,0" transform="translate(-139.522 -41.32)"/><path class="a" d="M296.484,46.229l-.566.849c-.189-.094-.377-.094-.566-.189s-.377-.094-.472-.189c-.094,0-.283-.094-.377-.094s-.283-.094-.377-.094h-.283a2.2,2.2,0,0,0-1.792,1.321,4.2,4.2,0,0,0-.566,2.547q.141,1.273,1.132,1.415a4.266,4.266,0,0,0,3.019-1.321l.283.377c.189.189.377.472.66.755l.283.377a7.866,7.866,0,0,1-1.132.755,4.406,4.406,0,0,1-.943.472,2.453,2.453,0,0,1-1.887,0,6,6,0,0,1-2.547-1.887,2.8,2.8,0,0,1-.755-1.887,3.894,3.894,0,0,1,.377-2.075,4.314,4.314,0,0,1,1.321-1.6,2.961,2.961,0,0,1,1.981-.66c.283-.189,1.415.283,3.207,1.132Zm0,0" transform="translate(-140.088 -41.324)"/><path class="a" d="M303.794,45.1l1.981.472v8.207a2.471,2.471,0,0,1-.849,1.792,4.117,4.117,0,0,1-1.792,1.132,2.145,2.145,0,0,1-1.509.094c-.094-.094-.377-.189-.66-.377s-.66-.377-1.038-.66a6.05,6.05,0,0,0-.943-.566l.377-.66c.66.377,1.038.566,1.321.755a1.836,1.836,0,0,0,2.075-.094c.66-.377.943-1.226.943-2.453v-.566a2.9,2.9,0,0,1-1.981,1.038c-.377,0-.849-.377-1.7-1.132a5.283,5.283,0,0,1-1.226-1.6c-.094-.472-.094-2.17-.094-5.377l1.981.472a37.324,37.324,0,0,0,.094,5.848c.283.377.755.377,1.321,0a4.937,4.937,0,0,0,1.509-1.6V45.1Zm0,0" transform="translate(-140.605 -41.327)"/><path class="a" d="M316.57,42.56v8.584h4.905l1.321,1.415h-6.131l-2.264-.472V41.9Zm0,0" transform="translate(-141.496 -41.145)"/><path class="a" d="M325.826,53.464a2.867,2.867,0,0,1-1.226-1.132c0-.189.189-.377.472-.66a2.369,2.369,0,0,1,.755-.472,2.865,2.865,0,0,1,1.226,1.132,4.827,4.827,0,0,1-1.226,1.132Zm0,0" transform="translate(-142.074 -41.673)"/><path class="a" d="M330.864,42.56v8.584h4.905l1.321,1.415h-6.226l-2.264-.472V41.9Zm0,0" transform="translate(-142.301 -41.145)"/><path class="a" d="M340.026,53.464a2.867,2.867,0,0,1-1.226-1.132c0-.189.189-.377.472-.66a2.366,2.366,0,0,1,.755-.472,2.867,2.867,0,0,1,1.226,1.132,2.894,2.894,0,0,1-1.226,1.132Zm0,0" transform="translate(-142.88 -41.673)"/><g transform="translate(199.599)"><path class="a" d="M351.944,44.119a17.63,17.63,0,0,0-2.358-1.132,2.017,2.017,0,0,0-1.792.094,3.33,3.33,0,0,0-1.6,1.415,8.549,8.549,0,0,0-1.038,2.075,3.38,3.38,0,0,0,0,2.358,3.091,3.091,0,0,0,1.415,1.887,2.485,2.485,0,0,0,2.453.283l1.132-.566c.283-.189.66-.472,1.038-.755l1.887,1.415a7.175,7.175,0,0,1-1.792,1.132,5.141,5.141,0,0,1-2.075.472,3.23,3.23,0,0,1-2.075-.472,16.815,16.815,0,0,1-3.018-2.264,4.588,4.588,0,0,1-1.038-1.321,2.662,2.662,0,0,1-.377-1.415,8.629,8.629,0,0,1,.094-1.509,8.293,8.293,0,0,1,.472-1.415c.283-.472.566-.849.849-1.321a5.405,5.405,0,0,1,1.038-1.038,7.8,7.8,0,0,1,1.226-.66A3.013,3.013,0,0,1,347.7,41.1a2.611,2.611,0,0,1,1.226.283c1.6.755,2.83,1.321,3.773,1.792Zm0,0" transform="translate(-342.7 -41.1)"/><path class="a" d="M356.026,53.464a2.867,2.867,0,0,1-1.226-1.132c0-.189.189-.377.472-.66a2.366,2.366,0,0,1,.755-.472,2.867,2.867,0,0,1,1.226,1.132,4.832,4.832,0,0,1-1.226,1.132Zm0,0" transform="translate(-343.386 -41.673)"/></g></g></g></svg>