<svg xmlns="http://www.w3.org/2000/svg" width="21.856" height="25.993" viewBox="0 0 21.856 25.993">
    <defs>
        <style>
            .cls-1{fill:#434856}
        </style>
    </defs>
    <g id="Group_429" data-name="Group 429" transform="translate(-13 -5.978)">
        <path id="Path_355" d="M23.836 5.984a.581.581 0 0 0-.166.056l-10.338 4.984a.591.591 0 0 0-.332.526v4a17.872 17.872 0 0 0 10.688 16.37.593.593 0 0 0 .48 0 17.871 17.871 0 0 0 10.688-16.374v-4a.591.591 0 0 0-.332-.526L24.187 6.04a.589.589 0 0 0-.351-.056zm.092 1.237l9.747 4.707v3.618a16.663 16.663 0 0 1-9.747 15.165 16.664 16.664 0 0 1-9.747-15.165v-3.618zm5.261 7.615a.59.59 0 0 0-.351.166L22.46 21.1l-2.842-2.84a.591.591 0 0 0-.847.823l.017.016 3.249 3.249a.591.591 0 0 0 .821.009l6.793-6.5a.591.591 0 0 0-.461-1.025z" class="cls-1" data-name="Path 355"/>
    </g>
</svg>
